<svg id="humidity" data-name="Layer 2" xmlns="http://www.w3.org/2000/svg" viewBox="0 0 240.86 321.83"><defs><style>.cls-1{fill:#ccc;}</style></defs><path class="cls-1" d="M719.5,388.5c-6-57-77-159.67-120-204.83,0,0-111,124.83-120,204.83-5.26,46.75,38,117,113,117S725.5,445.5,719.5,388.5ZM594.68,475.85c-56.83,0-89.6-53.23-85.62-88.65C515.88,326.58,600,232,600,232c32.58,34.22,86.38,112,90.92,155.2S651.51,475.85,594.68,475.85Z" transform="translate(-479.07 -183.67)"/><path class="cls-1" d="M563.5,327.5c-14.08,0-25.5,14.77-25.5,33s11.42,33,25.5,33,25.5-14.77,25.5-33S577.58,327.5,563.5,327.5Zm-.43,52.5c-5.73,0-10.38-8.84-10.38-19.75s4.65-19.75,10.38-19.75,10.37,8.84,10.37,19.75S568.8,380,563.07,380Z" transform="translate(-479.07 -183.67)"/><polygon class="cls-1" points="157.9 143.83 93.93 253.2 82.43 253.2 146.23 143.83 157.9 143.83"/><path class="cls-1" d="M634.72,374.2c-14.08,0-25.5,14.77-25.5,33s11.42,33,25.5,33,25.5-14.77,25.5-33S648.81,374.2,634.72,374.2Zm-.43,52.5c-5.73,0-10.37-8.84-10.37-19.75s4.64-19.75,10.37-19.75S644.67,396,644.67,407,640,426.7,634.29,426.7Z" transform="translate(-479.07 -183.67)"/></svg>