<svg id="thermometer" data-name="Layer 3" xmlns="http://www.w3.org/2000/svg" viewBox="0 0 213.74 512"><defs><style>.cls-4{fill:#ccc;}.cls-5{fill:#fff;}</style></defs><path class="cls-4" d="M620.5,393.5v-265S617.5,87,583,87c0,0-35,0-37,41V393.7s-70,25.41-70,99.11S544.5,599,583,599s106.74-30,106.74-106.74S620.5,393.5,620.5,393.5ZM581.62,558.23c-23.58,0-65.53-19.91-65.53-65.05S570.5,429.5,570.5,429.5l1-290c0-25,11-24,11-24,14,0,13,22,13,22v291S647,445.83,647,492.85,605.2,558.23,581.62,558.23Z" transform="translate(-476 -87)"/><rect class="cls-5" x="135" y="72" width="9" height="8.36"/><rect class="cls-5" x="135" y="101.27" width="9" height="8.36"/><rect class="cls-5" x="135" y="101.27" width="9" height="8.36"/><rect class="cls-5" x="135" y="130.55" width="9" height="8.36"/><rect class="cls-5" x="135" y="130.55" width="9" height="8.36"/><rect class="cls-5" x="135" y="159.82" width="9" height="8.36"/><rect class="cls-5" x="135" y="189.09" width="9" height="8.36"/><rect class="cls-5" x="135" y="218.36" width="9" height="8.36"/><rect class="cls-5" x="135" y="218.36" width="9" height="8.36"/><rect class="cls-5" x="135" y="247.64" width="9" height="8.36"/></svg>